<svg xmlns="http://www.w3.org/2000/svg" version="1.1" xmlns:xlink="http://www.w3.org/1999/xlink" xmlns:svgjs="http://svgjs.dev/svgjs" width="1920" height="800" preserveAspectRatio="none" viewBox="0 0 1920 800"><g mask="url(&quot;#SvgjsMask1128&quot;)" fill="none"><rect width="1920" height="800" x="0" y="0" fill="url(&quot;#SvgjsLinearGradient1129&quot;)"></rect><path d="M823 172L473 522" stroke-width="6" stroke="url(&quot;#SvgjsLinearGradient1130&quot;)" stroke-linecap="round" class="TopRight"></path><path d="M1102 39L1352 -211" stroke-width="8" stroke="url(&quot;#SvgjsLinearGradient1130&quot;)" stroke-linecap="round" class="TopRight"></path><path d="M1 59L594 -534" stroke-width="8" stroke="url(&quot;#SvgjsLinearGradient1130&quot;)" stroke-linecap="round" class="TopRight"></path><path d="M1756 346L2224 -122" stroke-width="8" stroke="url(&quot;#SvgjsLinearGradient1131&quot;)" stroke-linecap="round" class="BottomLeft"></path><path d="M593 359L188 764" stroke-width="10" stroke="url(&quot;#SvgjsLinearGradient1131&quot;)" stroke-linecap="round" class="BottomLeft"></path><path d="M1849 707L1416 1140" stroke-width="6" stroke="url(&quot;#SvgjsLinearGradient1130&quot;)" stroke-linecap="round" class="TopRight"></path><path d="M1433 606L1849 190" stroke-width="8" stroke="url(&quot;#SvgjsLinearGradient1131&quot;)" stroke-linecap="round" class="BottomLeft"></path><path d="M1052 39L780 311" stroke-width="8" stroke="url(&quot;#SvgjsLinearGradient1131&quot;)" stroke-linecap="round" class="BottomLeft"></path><path d="M411 588L958 41" stroke-width="10" stroke="url(&quot;#SvgjsLinearGradient1131&quot;)" stroke-linecap="round" class="BottomLeft"></path><path d="M1322 232L742 812" stroke-width="10" stroke="url(&quot;#SvgjsLinearGradient1131&quot;)" stroke-linecap="round" class="BottomLeft"></path><path d="M97 203L-231 531" stroke-width="6" stroke="url(&quot;#SvgjsLinearGradient1130&quot;)" stroke-linecap="round" class="TopRight"></path><path d="M1294 127L1600 -179" stroke-width="6" stroke="url(&quot;#SvgjsLinearGradient1131&quot;)" stroke-linecap="round" class="BottomLeft"></path><path d="M1302 496L1020 778" stroke-width="10" stroke="url(&quot;#SvgjsLinearGradient1131&quot;)" stroke-linecap="round" class="BottomLeft"></path><path d="M1051 248L1308 -9" stroke-width="6" stroke="url(&quot;#SvgjsLinearGradient1131&quot;)" stroke-linecap="round" class="BottomLeft"></path><path d="M1354 510L1640 224" stroke-width="8" stroke="url(&quot;#SvgjsLinearGradient1131&quot;)" stroke-linecap="round" class="BottomLeft"></path><path d="M9 657L-381 1047" stroke-width="10" stroke="url(&quot;#SvgjsLinearGradient1130&quot;)" stroke-linecap="round" class="TopRight"></path><path d="M1870 658L1367 1161" stroke-width="6" stroke="url(&quot;#SvgjsLinearGradient1131&quot;)" stroke-linecap="round" class="BottomLeft"></path><path d="M1268 500L896 872" stroke-width="8" stroke="url(&quot;#SvgjsLinearGradient1131&quot;)" stroke-linecap="round" class="BottomLeft"></path><path d="M1823 157L1585 395" stroke-width="10" stroke="url(&quot;#SvgjsLinearGradient1131&quot;)" stroke-linecap="round" class="BottomLeft"></path><path d="M1157 87L641 603" stroke-width="8" stroke="url(&quot;#SvgjsLinearGradient1131&quot;)" stroke-linecap="round" class="BottomLeft"></path><path d="M1593 58L1377 274" stroke-width="10" stroke="url(&quot;#SvgjsLinearGradient1130&quot;)" stroke-linecap="round" class="TopRight"></path><path d="M904 126L1338 -308" stroke-width="8" stroke="url(&quot;#SvgjsLinearGradient1130&quot;)" stroke-linecap="round" class="TopRight"></path><path d="M1213 775L1455 533" stroke-width="6" stroke="url(&quot;#SvgjsLinearGradient1131&quot;)" stroke-linecap="round" class="BottomLeft"></path><path d="M1208 360L807 761" stroke-width="8" stroke="url(&quot;#SvgjsLinearGradient1131&quot;)" stroke-linecap="round" class="BottomLeft"></path><path d="M342 210L726 -174" stroke-width="10" stroke="url(&quot;#SvgjsLinearGradient1130&quot;)" stroke-linecap="round" class="TopRight"></path><path d="M1220 716L724 1212" stroke-width="10" stroke="url(&quot;#SvgjsLinearGradient1130&quot;)" stroke-linecap="round" class="TopRight"></path><path d="M134 538L-160 832" stroke-width="8" stroke="url(&quot;#SvgjsLinearGradient1131&quot;)" stroke-linecap="round" class="BottomLeft"></path><path d="M1030 30L562 498" stroke-width="10" stroke="url(&quot;#SvgjsLinearGradient1130&quot;)" stroke-linecap="round" class="TopRight"></path><path d="M6 620L-239 865" stroke-width="6" stroke="url(&quot;#SvgjsLinearGradient1130&quot;)" stroke-linecap="round" class="TopRight"></path><path d="M1368 289L848 809" stroke-width="8" stroke="url(&quot;#SvgjsLinearGradient1131&quot;)" stroke-linecap="round" class="BottomLeft"></path><path d="M1481 12L1152 341" stroke-width="8" stroke="url(&quot;#SvgjsLinearGradient1131&quot;)" stroke-linecap="round" class="BottomLeft"></path><path d="M936 517L1402 51" stroke-width="6" stroke="url(&quot;#SvgjsLinearGradient1131&quot;)" stroke-linecap="round" class="BottomLeft"></path><path d="M1453 24L1060 417" stroke-width="8" stroke="url(&quot;#SvgjsLinearGradient1131&quot;)" stroke-linecap="round" class="BottomLeft"></path><path d="M541 752L83 1210" stroke-width="8" stroke="url(&quot;#SvgjsLinearGradient1130&quot;)" stroke-linecap="round" class="TopRight"></path><path d="M1678 587L1084 1181" stroke-width="8" stroke="url(&quot;#SvgjsLinearGradient1130&quot;)" stroke-linecap="round" class="TopRight"></path><path d="M452 308L-121 881" stroke-width="10" stroke="url(&quot;#SvgjsLinearGradient1130&quot;)" stroke-linecap="round" class="TopRight"></path><path d="M1721 73L1355 439" stroke-width="8" stroke="url(&quot;#SvgjsLinearGradient1130&quot;)" stroke-linecap="round" class="TopRight"></path><path d="M1131 163L1651 -357" stroke-width="6" stroke="url(&quot;#SvgjsLinearGradient1130&quot;)" stroke-linecap="round" class="TopRight"></path><path d="M468 425L-78 971" stroke-width="10" stroke="url(&quot;#SvgjsLinearGradient1130&quot;)" stroke-linecap="round" class="TopRight"></path><path d="M272 536L-278 1086" stroke-width="10" stroke="url(&quot;#SvgjsLinearGradient1131&quot;)" stroke-linecap="round" class="BottomLeft"></path><path d="M87 42L-314 443" stroke-width="8" stroke="url(&quot;#SvgjsLinearGradient1130&quot;)" stroke-linecap="round" class="TopRight"></path><path d="M874 314L332 856" stroke-width="10" stroke="url(&quot;#SvgjsLinearGradient1131&quot;)" stroke-linecap="round" class="BottomLeft"></path><path d="M1106 204L1677 -367" stroke-width="8" stroke="url(&quot;#SvgjsLinearGradient1130&quot;)" stroke-linecap="round" class="TopRight"></path><path d="M1660 671L1137 1194" stroke-width="8" stroke="url(&quot;#SvgjsLinearGradient1130&quot;)" stroke-linecap="round" class="TopRight"></path><path d="M142 798L-105 1045" stroke-width="8" stroke="url(&quot;#SvgjsLinearGradient1131&quot;)" stroke-linecap="round" class="BottomLeft"></path><path d="M655 751L186 1220" stroke-width="8" stroke="url(&quot;#SvgjsLinearGradient1131&quot;)" stroke-linecap="round" class="BottomLeft"></path><path d="M527 356L907 -24" stroke-width="6" stroke="url(&quot;#SvgjsLinearGradient1130&quot;)" stroke-linecap="round" class="TopRight"></path><path d="M642 677L272 1047" stroke-width="10" stroke="url(&quot;#SvgjsLinearGradient1130&quot;)" stroke-linecap="round" class="TopRight"></path><path d="M1509 767L1261 1015" stroke-width="6" stroke="url(&quot;#SvgjsLinearGradient1130&quot;)" stroke-linecap="round" class="TopRight"></path><path d="M228 730L724 234" stroke-width="8" stroke="url(&quot;#SvgjsLinearGradient1130&quot;)" stroke-linecap="round" class="TopRight"></path><path d="M181 712L-255 1148" stroke-width="10" stroke="url(&quot;#SvgjsLinearGradient1131&quot;)" stroke-linecap="round" class="BottomLeft"></path><path d="M1347 687L817 1217" stroke-width="6" stroke="url(&quot;#SvgjsLinearGradient1131&quot;)" stroke-linecap="round" class="BottomLeft"></path></g><defs><mask id="SvgjsMask1128"><rect width="1920" height="800" fill="#ffffff"></rect></mask><linearGradient x1="14.58%" y1="-35%" x2="85.42%" y2="135%" gradientUnits="userSpaceOnUse" id="SvgjsLinearGradient1129"><stop stop-color="#0e2a47" offset="0"></stop><stop stop-color="rgba(0, 0, 0, 1)" offset="1"></stop></linearGradient><linearGradient x1="0%" y1="100%" x2="100%" y2="0%" id="SvgjsLinearGradient1130"><stop stop-color="rgba(28, 83, 142, 0)" offset="0"></stop><stop stop-color="#1c538e" offset="1"></stop></linearGradient><linearGradient x1="100%" y1="0%" x2="0%" y2="100%" id="SvgjsLinearGradient1131"><stop stop-color="rgba(28, 83, 142, 0)" offset="0"></stop><stop stop-color="#1c538e" offset="1"></stop></linearGradient></defs></svg>