<svg xmlns="http://www.w3.org/2000/svg" version="1.1" xmlns:xlink="http://www.w3.org/1999/xlink" xmlns:svgjs="http://svgjs.dev/svgjs" width="1920" height="800" preserveAspectRatio="none" viewBox="0 0 1920 800"><g mask="url(&quot;#SvgjsMask1096&quot;)" fill="none"><rect width="1920" height="800" x="0" y="0" fill="rgba(14, 42, 71, 1)"></rect><path d="M58 800L858 0L1405.5 0L605.5 800z" fill="url(&quot;#SvgjsLinearGradient1097&quot;)"></path><path d="M702.6 800L1502.6 0L2441.6 0L1641.6 800z" fill="url(&quot;#SvgjsLinearGradient1097&quot;)"></path><path d="M1908 800L1108 0L1004.5 0L1804.5 800z" fill="url(&quot;#SvgjsLinearGradient1098&quot;)"></path><path d="M1238.4 800L438.4000000000001 0L-289.0999999999999 0L510.9000000000001 800z" fill="url(&quot;#SvgjsLinearGradient1098&quot;)"></path><path d="M1264.903409358028 800L1920 144.90340935802794L1920 800z" fill="url(&quot;#SvgjsLinearGradient1097&quot;)"></path><path d="M0 800L655.096590641972 800L 0 144.90340935802794z" fill="url(&quot;#SvgjsLinearGradient1098&quot;)"></path></g><defs><mask id="SvgjsMask1096"><rect width="1920" height="800" fill="#ffffff"></rect></mask><linearGradient x1="0%" y1="100%" x2="100%" y2="0%" id="SvgjsLinearGradient1097"><stop stop-color="rgba(255, 255, 255, 0.29)" offset="0"></stop><stop stop-opacity="0" stop-color="rgba(255, 255, 255, 0.29)" offset="0.66"></stop></linearGradient><linearGradient x1="100%" y1="100%" x2="0%" y2="0%" id="SvgjsLinearGradient1098"><stop stop-color="rgba(255, 255, 255, 0.29)" offset="0"></stop><stop stop-opacity="0" stop-color="rgba(255, 255, 255, 0.29)" offset="0.66"></stop></linearGradient></defs></svg>